CooperHewitt-Medium.ufo
<glyph name="two" format="2">
  <advance width="600"/>
  <unicode hex="0032"/>
  <outline>
    <contour>
      <point x="275" y="92" type="line"/>
      <point x="548" y="92" type="line"/>
      <point x="548" y="0" type="line"/>
      <point x="52" y="0" type="line"/>
      <point x="52" y="64" type="line"/>
      <point x="376" y="413" type="line" smooth="yes"/>
      <point x="427" y="467"/>
      <point x="445" y="501"/>
      <point x="445" y="553" type="curve" smooth="yes"/>
      <point x="445" y="563" type="line" smooth="yes"/>
      <point x="445" y="651"/>
      <point x="388" y="701"/>
      <point x="304" y="701" type="curve" smooth="yes"/>
      <point x="296" y="701" type="line" smooth="yes"/>
      <point x="203" y="701"/>
      <point x="154" y="650"/>
      <point x="154" y="520" type="curve"/>
      <point x="52" y="520" type="line"/>
      <point x="52" y="542" type="line" smooth="yes"/>
      <point x="52" y="704"/>
      <point x="129" y="792"/>
      <point x="300" y="792" type="curve" smooth="yes"/>
      <point x="469" y="792"/>
      <point x="548" y="696"/>
      <point x="548" y="581" type="curve" smooth="yes"/>
      <point x="548" y="567" type="line" smooth="yes"/>
      <point x="548" y="482"/>
      <point x="525" y="436"/>
      <point x="459" y="366" type="curve" smooth="yes"/>
      <point x="203" y="91" type="line"/>
    </contour>
  </outline>
</glyph>
<glyph name="six" format="2">
  <advance width="600"/>
  <unicode hex="0036"/>
  <outline>
    <contour>
      <point x="519" y="792" type="curve"/>
      <point x="519" y="699" type="line"/>
      <point x="411" y="699"/>
      <point x="308" y="665"/>
      <point x="240" y="577" type="curve" smooth="yes"/>
      <point x="206" y="533"/>
      <point x="184" y="484"/>
      <point x="170" y="430" type="curve"/>
      <point x="208" y="466"/>
      <point x="260" y="491"/>
      <point x="327" y="491" type="curve" smooth="yes"/>
      <point x="461" y="491"/>
      <point x="556" y="406"/>
      <point x="556" y="245" type="curve" smooth="yes"/>
      <point x="556" y="235" type="line" smooth="yes"/>
      <point x="556" y="75"/>
      <point x="460" y="-12"/>
      <point x="303" y="-12" type="curve" smooth="yes"/>
      <point x="150" y="-12"/>
      <point x="49" y="92"/>
      <point x="49" y="267" type="curve" smooth="yes"/>
      <point x="49" y="278" type="line" smooth="yes"/>
      <point x="49" y="402"/>
      <point x="76" y="525"/>
      <point x="159" y="636" type="curve" smooth="yes"/>
      <point x="245" y="751"/>
      <point x="382" y="792"/>
    </contour>
    <contour>
      <point x="305" y="399" type="line" smooth="yes"/>
      <point x="239" y="399"/>
      <point x="180" y="363"/>
      <point x="151" y="305" type="curve"/>
      <point x="151" y="260" type="line" smooth="yes"/>
      <point x="151" y="145"/>
      <point x="218" y="80"/>
      <point x="300" y="80" type="curve" smooth="yes"/>
      <point x="306" y="80" type="line" smooth="yes"/>
      <point x="394" y="80"/>
      <point x="453" y="134"/>
      <point x="453" y="232" type="curve" smooth="yes"/>
      <point x="453" y="249" type="line" smooth="yes"/>
      <point x="453" y="349"/>
      <point x="396" y="399"/>
      <point x="310" y="399" type="curve" smooth="yes"/>
    </contour>
  </outline>
</glyph>
<glyph name="J" format="2">
  <advance width="510"/>
  <unicode hex="004A"/>
  <outline>
    <contour>
      <point x="344" y="780" type="line"/>
      <point x="448" y="780" type="line"/>
      <point x="448" y="239" type="line" smooth="yes"/>
      <point x="448" y="82"/>
      <point x="389" y="-12"/>
      <point x="237" y="-12" type="curve" smooth="yes"/>
      <point x="80" y="-12"/>
      <point x="27" y="80"/>
      <point x="27" y="240" type="curve" smooth="yes"/>
      <point x="27" y="259" type="line"/>
      <point x="125" y="259" type="line"/>
      <point x="125" y="136"/>
      <point x="154" y="80"/>
      <point x="234" y="80" type="curve" smooth="yes"/>
      <point x="315" y="80"/>
      <point x="344" y="136"/>
      <point x="344" y="254" type="curve" smooth="yes"/>
    </contour>
  </outline>
</glyph>
<glyph name="R" format="2">
  <advance width="598"/>
  <unicode hex="0052"/>
  <outline>
    <contour>
      <point x="171" y="304" type="line"/>
      <point x="171" y="0" type="line"/>
      <point x="67" y="0" type="line"/>
      <point x="67" y="780" type="line"/>
      <point x="298" y="780" type="line" smooth="yes"/>
      <point x="415" y="780"/>
      <point x="548" y="741"/>
      <point x="548" y="552" type="curve" smooth="yes"/>
      <point x="548" y="532" type="line" smooth="yes"/>
      <point x="548" y="407"/>
      <point x="490" y="348"/>
      <point x="418" y="322" type="curve"/>
      <point x="548" y="0" type="line"/>
      <point x="435" y="0" type="line"/>
      <point x="317" y="304" type="line"/>
    </contour>
    <contour>
      <point x="171" y="395" type="line"/>
      <point x="301" y="395" type="line" smooth="yes"/>
      <point x="361" y="395"/>
      <point x="442" y="417"/>
      <point x="442" y="535" type="curve" smooth="yes"/>
      <point x="442" y="548" type="line" smooth="yes"/>
      <point x="442" y="666"/>
      <point x="361" y="688"/>
      <point x="301" y="688" type="curve" smooth="yes"/>
      <point x="171" y="688" type="line"/>
    </contour>
  </outline>
</glyph>
<glyph name="j" format="2">
  <advance width="234"/>
  <unicode hex="006A"/>
  <outline>
    <contour>
      <point x="67" y="-29" type="curve" smooth="yes"/>
      <point x="67" y="530" type="line"/>
      <point x="167" y="530" type="line"/>
      <point x="167" y="-40" type="line" smooth="yes"/>
      <point x="167" y="-166"/>
      <point x="96" y="-212"/>
      <point x="-3" y="-212" type="curve" smooth="yes"/>
      <point x="-47" y="-212"/>
      <point x="-73" y="-204"/>
      <point x="-81" y="-200" type="curve"/>
      <point x="-81" y="-116" type="line"/>
      <point x="-74" y="-119"/>
      <point x="-48" y="-124"/>
      <point x="-27" y="-124" type="curve" smooth="yes"/>
      <point x="33" y="-124"/>
      <point x="67" y="-106"/>
    </contour>
    <contour>
      <point x="174" y="754" type="line"/>
      <point x="174" y="640" type="line"/>
      <point x="60" y="640" type="line"/>
      <point x="60" y="754" type="line"/>
    </contour>
  </outline>
</glyph>
<glyph name="brokenbar" format="2">
  <advance width="223"/>
  <unicode hex="00A6"/>
  <outline>
    <contour>
      <point x="61" y="391" type="line"/>
      <point x="61" y="840" type="line"/>
      <point x="161" y="840" type="line"/>
      <point x="161" y="391" type="line"/>
    </contour>
    <contour>
      <point x="61" y="-120" type="line"/>
      <point x="61" y="329" type="line"/>
      <point x="161" y="329" type="line"/>
      <point x="161" y="-120" type="line"/>
    </contour>
  </outline>
</glyph>
<glyph name="section" format="2">
  <advance width="526"/>
  <unicode hex="00A7"/>
  <outline>
    <contour>
      <point x="488" y="391" type="line" smooth="yes"/>
      <point x="488" y="331"/>
      <point x="460" y="287"/>
      <point x="407" y="263" type="curve"/>
      <point x="442" y="237"/>
      <point x="457" y="200"/>
      <point x="457" y="154" type="curve" smooth="yes"/>
      <point x="457" y="147" type="line" smooth="yes"/>
      <point x="457" y="45"/>
      <point x="376" y="-12"/>
      <point x="251" y="-12" type="curve" smooth="yes"/>
      <point x="102" y="-12"/>
      <point x="44" y="60"/>
      <point x="44" y="168" type="curve" smooth="yes"/>
      <point x="44" y="172" type="line"/>
      <point x="143" y="172" type="line"/>
      <point x="143" y="109"/>
      <point x="170" y="69"/>
      <point x="251" y="69" type="curve" smooth="yes"/>
      <point x="317" y="69"/>
      <point x="356" y="97"/>
      <point x="356" y="146" type="curve" smooth="yes"/>
      <point x="356" y="192"/>
      <point x="334" y="221"/>
      <point x="239" y="229" type="curve" smooth="yes"/>
      <point x="106" y="239"/>
      <point x="38" y="276"/>
      <point x="38" y="383" type="curve" smooth="yes"/>
      <point x="38" y="389" type="line" smooth="yes"/>
      <point x="38" y="449"/>
      <point x="66" y="492"/>
      <point x="119" y="517" type="curve"/>
      <point x="83" y="542"/>
      <point x="68" y="579"/>
      <point x="68" y="626" type="curve" smooth="yes"/>
      <point x="68" y="633" type="line" smooth="yes"/>
      <point x="68" y="735"/>
      <point x="150" y="792"/>
      <point x="275" y="792" type="curve" smooth="yes"/>
      <point x="424" y="792"/>
      <point x="482" y="720"/>
      <point x="482" y="612" type="curve" smooth="yes"/>
      <point x="482" y="608" type="line"/>
      <point x="382" y="608" type="line"/>
      <point x="382" y="671"/>
      <point x="356" y="711"/>
      <point x="275" y="711" type="curve" smooth="yes"/>
      <point x="208" y="711"/>
      <point x="169" y="683"/>
      <point x="169" y="634" type="curve" smooth="yes"/>
      <point x="169" y="588"/>
      <point x="191" y="559"/>
      <point x="287" y="551" type="curve" smooth="yes"/>
      <point x="420" y="541"/>
      <point x="488" y="504"/>
      <point x="488" y="397" type="curve" smooth="yes"/>
    </contour>
    <contour>
      <point x="385" y="390" type="curve" smooth="yes"/>
      <point x="385" y="449"/>
      <point x="352" y="470"/>
      <point x="273" y="477" type="curve"/>
      <point x="257" y="477" type="line" smooth="yes"/>
      <point x="180" y="477"/>
      <point x="140" y="442"/>
      <point x="140" y="390" type="curve" smooth="yes"/>
      <point x="140" y="331"/>
      <point x="173" y="310"/>
      <point x="253" y="303" type="curve"/>
      <point x="269" y="303" type="line" smooth="yes"/>
      <point x="346" y="303"/>
      <point x="385" y="338"/>
    </contour>
  </outline>
</glyph>
<glyph name="ordfeminine" format="2">
  <advance width="403"/>
  <unicode hex="00AA"/>
  <outline>
    <contour>
      <point x="292" y="388" type="line"/>
      <point x="284" y="436" type="line"/>
      <point x="257" y="402"/>
      <point x="215" y="378"/>
      <point x="153" y="378" type="curve" smooth="yes"/>
      <point x="72" y="378"/>
      <point x="35" y="429"/>
      <point x="35" y="492" type="curve" smooth="yes"/>
      <point x="35" y="500" type="line" smooth="yes"/>
      <point x="35" y="586"/>
      <point x="96" y="612"/>
      <point x="172" y="624" type="curve" smooth="yes"/>
      <point x="275" y="639" type="line"/>
      <point x="275" y="643" type="line" smooth="yes"/>
      <point x="275" y="695"/>
      <point x="259" y="723"/>
      <point x="205" y="723" type="curve" smooth="yes"/>
      <point x="147" y="723"/>
      <point x="134" y="690"/>
      <point x="134" y="652" type="curve"/>
      <point x="50" y="652" type="line"/>
      <point x="50" y="659" type="line" smooth="yes"/>
      <point x="50" y="724"/>
      <point x="83" y="792"/>
      <point x="207" y="792" type="curve" smooth="yes"/>
      <point x="327" y="792"/>
      <point x="364" y="735"/>
      <point x="364" y="643" type="curve" smooth="yes"/>
      <point x="364" y="499" type="line"/>
      <point x="370" y="388" type="line"/>
    </contour>
    <contour>
      <point x="368" y="202" type="line"/>
      <point x="45" y="202" type="line"/>
      <point x="45" y="279" type="line"/>
      <point x="368" y="279" type="line"/>
    </contour>
    <contour>
      <point x="183" y="451" type="curve" smooth="yes"/>
      <point x="233" y="451"/>
      <point x="261" y="477"/>
      <point x="275" y="495" type="curve"/>
      <point x="275" y="585" type="line"/>
      <point x="187" y="570" type="line" smooth="yes"/>
      <point x="146" y="563"/>
      <point x="123" y="543"/>
      <point x="123" y="509" type="curve" smooth="yes"/>
      <point x="123" y="504" type="line" smooth="yes"/>
      <point x="123" y="477"/>
      <point x="140" y="451"/>
    </contour>
  </outline>
</glyph>
<glyph name="threesuperior" format="2">
  <advance width="300"/>
  <unicode hex="00B3"/>
  <outline>
    <contour>
      <point x="102" y="515" type="line"/>
      <point x="102" y="470"/>
      <point x="122" y="456"/>
      <point x="147" y="456" type="curve" smooth="yes"/>
      <point x="152" y="456" type="line" smooth="yes"/>
      <point x="176" y="456"/>
      <point x="198" y="471"/>
      <point x="198" y="504" type="curve" smooth="yes"/>
      <point x="198" y="509" type="line" smooth="yes"/>
      <point x="198" y="537"/>
      <point x="180" y="552"/>
      <point x="153" y="552" type="curve" smooth="yes"/>
      <point x="100" y="552" type="line"/>
      <point x="100" y="626" type="line"/>
      <point x="152" y="626" type="line" smooth="yes"/>
      <point x="179" y="626"/>
      <point x="195" y="639"/>
      <point x="195" y="667" type="curve" smooth="yes"/>
      <point x="195" y="673" type="line" smooth="yes"/>
      <point x="195" y="697"/>
      <point x="177" y="713"/>
      <point x="152" y="713" type="curve" smooth="yes"/>
      <point x="147" y="713" type="line" smooth="yes"/>
      <point x="122" y="713"/>
      <point x="105" y="697"/>
      <point x="105" y="650" type="curve"/>
      <point x="21" y="650" type="line"/>
      <point x="21" y="660" type="line" smooth="yes"/>
      <point x="21" y="744"/>
      <point x="62" y="786"/>
      <point x="150" y="786" type="curve" smooth="yes"/>
      <point x="246" y="786"/>
      <point x="279" y="728"/>
      <point x="279" y="682" type="curve" smooth="yes"/>
      <point x="279" y="673" type="line" smooth="yes"/>
      <point x="279" y="631"/>
      <point x="259" y="604"/>
      <point x="234" y="589" type="curve"/>
      <point x="260" y="573"/>
      <point x="281" y="546"/>
      <point x="281" y="504" type="curve" smooth="yes"/>
      <point x="281" y="495" type="line" smooth="yes"/>
      <point x="281" y="447"/>
      <point x="245" y="383"/>
      <point x="150" y="383" type="curve" smooth="yes"/>
      <point x="62" y="383"/>
      <point x="18" y="428"/>
      <point x="18" y="508" type="curve" smooth="yes"/>
      <point x="18" y="515" type="line"/>
    </contour>
  </outline>
</glyph>
<glyph name="oslash" format="2">
  <advance width="548"/>
  <unicode hex="00F8"/>
  <outline>
    <contour>
      <point x="506" y="530" type="line"/>
      <point x="454" y="461" type="line"/>
      <point x="489" y="414"/>
      <point x="506" y="351"/>
      <point x="506" y="279" type="curve" smooth="yes"/>
      <point x="506" y="251" type="line" smooth="yes"/>
      <point x="506" y="102"/>
      <point x="435" y="-12"/>
      <point x="274" y="-12" type="curve" smooth="yes"/>
      <point x="213" y="-12"/>
      <point x="165" y="4"/>
      <point x="129" y="32" type="curve"/>
      <point x="105" y="0" type="line"/>
      <point x="42" y="0" type="line"/>
      <point x="94" y="68" type="line"/>
      <point x="58" y="115"/>
      <point x="42" y="179"/>
      <point x="42" y="251" type="curve" smooth="yes"/>
      <point x="42" y="279" type="line" smooth="yes"/>
      <point x="42" y="428"/>
      <point x="113" y="542"/>
      <point x="274" y="542" type="curve" smooth="yes"/>
      <point x="334" y="542"/>
      <point x="382" y="525"/>
      <point x="418" y="497" type="curve"/>
      <point x="443" y="530" type="line"/>
    </contour>
    <contour>
      <point x="405" y="279" type="line" smooth="yes"/>
      <point x="405" y="316"/>
      <point x="400" y="349"/>
      <point x="389" y="376" type="curve"/>
      <point x="187" y="109" type="line"/>
      <point x="208" y="88"/>
      <point x="237" y="76"/>
      <point x="274" y="76" type="curve" smooth="yes"/>
      <point x="364" y="76"/>
      <point x="405" y="145"/>
      <point x="405" y="251" type="curve" smooth="yes"/>
    </contour>
    <contour>
      <point x="143" y="251" type="line" smooth="yes"/>
      <point x="143" y="213"/>
      <point x="148" y="180"/>
      <point x="158" y="154" type="curve"/>
      <point x="360" y="421" type="line"/>
      <point x="339" y="442"/>
      <point x="311" y="454"/>
      <point x="274" y="454" type="curve" smooth="yes"/>
      <point x="184" y="454"/>
      <point x="143" y="385"/>
      <point x="143" y="279" type="curve" smooth="yes"/>
    </contour>
  </outline>
</glyph>
<glyph name="Iogonek" format="2">
  <advance width="248"/>
  <unicode hex="012E"/>
  <outline>
    <contour>
      <point x="101" y="-91" type="curve" smooth="yes"/>
      <point x="101" y="-117"/>
      <point x="119" y="-136"/>
      <point x="152" y="-136" type="curve" smooth="yes"/>
      <point x="175" y="-136"/>
      <point x="195" y="-130"/>
      <point x="207" y="-123" type="curve"/>
      <point x="232" y="-191" type="line"/>
      <point x="211" y="-204"/>
      <point x="174" y="-213"/>
      <point x="139" y="-213" type="curve" smooth="yes"/>
      <point x="68" y="-213"/>
      <point x="20" y="-181"/>
      <point x="20" y="-111" type="curve" smooth="yes"/>
      <point x="20" y="-64"/>
      <point x="41" y="-26"/>
      <point x="72" y="1" type="curve"/>
      <point x="72" y="780" type="line"/>
      <point x="176" y="780" type="line"/>
      <point x="176" y="0" type="line"/>
      <point x="134" y="-18"/>
      <point x="101" y="-47"/>
    </contour>
  </outline>
</glyph>
<glyph name="iogonek" format="2">
  <advance width="234"/>
  <unicode hex="012F"/>
  <outline>
    <contour>
      <point x="91" y="-91" type="curve" smooth="yes"/>
      <point x="91" y="-117"/>
      <point x="109" y="-136"/>
      <point x="142" y="-136" type="curve" smooth="yes"/>
      <point x="165" y="-136"/>
      <point x="185" y="-130"/>
      <point x="197" y="-123" type="curve"/>
      <point x="222" y="-191" type="line"/>
      <point x="201" y="-204"/>
      <point x="164" y="-213"/>
      <point x="129" y="-213" type="curve" smooth="yes"/>
      <point x="58" y="-213"/>
      <point x="10" y="-181"/>
      <point x="10" y="-111" type="curve" smooth="yes"/>
      <point x="10" y="-61"/>
      <point x="33" y="-22"/>
      <point x="67" y="6" type="curve"/>
      <point x="67" y="530" type="line"/>
      <point x="167" y="530" type="line"/>
      <point x="167" y="0" type="line"/>
      <point x="166" y="0" type="line"/>
      <point x="124" y="-18"/>
      <point x="91" y="-47"/>
    </contour>
    <contour>
      <point x="174" y="754" type="line"/>
      <point x="174" y="640" type="line"/>
      <point x="60" y="640" type="line"/>
      <point x="60" y="754" type="line"/>
    </contour>
  </outline>
</glyph>
<glyph name="ncaron" format="2">
  <advance width="545"/>
  <unicode hex="0148"/>
  <outline>
    <contour>
      <point x="489" y="0" type="line"/>
      <point x="390" y="0" type="line"/>
      <point x="390" y="351" type="line" smooth="yes"/>
      <point x="390" y="417"/>
      <point x="355" y="454"/>
      <point x="290" y="454" type="curve" smooth="yes"/>
      <point x="218" y="454"/>
      <point x="180" y="412"/>
      <point x="162" y="383" type="curve"/>
      <point x="162" y="0" type="line"/>
      <point x="62" y="0" type="line"/>
      <point x="62" y="380" type="line"/>
      <point x="55" y="530" type="line"/>
      <point x="141" y="530" type="line"/>
      <point x="152" y="457" type="line"/>
      <point x="184" y="505"/>
      <point x="240" y="542"/>
      <point x="327" y="542" type="curve" smooth="yes"/>
      <point x="438" y="542"/>
      <point x="489" y="465"/>
      <point x="489" y="367" type="curve" smooth="yes"/>
    </contour>
    <contour>
      <point x="97" y="780" type="line"/>
      <point x="191" y="780" type="line"/>
      <point x="276" y="678" type="line"/>
      <point x="361" y="780" type="line"/>
      <point x="455" y="780" type="line"/>
      <point x="323" y="607" type="line"/>
      <point x="229" y="607" type="line"/>
    </contour>
  </outline>
</glyph>
<glyph name="oe" format="2">
  <advance width="911"/>
  <unicode hex="0153"/>
  <outline>
    <contour>
      <point x="868" y="227" type="line"/>
      <point x="506" y="227" type="line"/>
      <point x="510" y="124"/>
      <point x="554" y="68"/>
      <point x="644" y="68" type="curve" smooth="yes"/>
      <point x="733" y="68"/>
      <point x="773" y="122"/>
      <point x="773" y="170" type="curve"/>
      <point x="868" y="170" type="line"/>
      <point x="868" y="166" type="line" smooth="yes"/>
      <point x="868" y="77"/>
      <point x="794" y="-12"/>
      <point x="644" y="-12" type="curve" smooth="yes"/>
      <point x="552" y="-12"/>
      <point x="491" y="27"/>
      <point x="456" y="86" type="curve"/>
      <point x="422" y="27"/>
      <point x="364" y="-12"/>
      <point x="274" y="-12" type="curve" smooth="yes"/>
      <point x="113" y="-12"/>
      <point x="42" y="102"/>
      <point x="42" y="251" type="curve" smooth="yes"/>
      <point x="42" y="279" type="line" smooth="yes"/>
      <point x="42" y="428"/>
      <point x="113" y="542"/>
      <point x="274" y="542" type="curve" smooth="yes"/>
      <point x="364" y="542"/>
      <point x="422" y="503"/>
      <point x="456" y="444" type="curve"/>
      <point x="491" y="502"/>
      <point x="550" y="542"/>
      <point x="638" y="542" type="curve" smooth="yes"/>
      <point x="798" y="542"/>
      <point x="868" y="426"/>
      <point x="868" y="277" type="curve" smooth="yes"/>
    </contour>
    <contour>
      <point x="143" y="251" type="line" smooth="yes"/>
      <point x="143" y="145"/>
      <point x="184" y="76"/>
      <point x="274" y="76" type="curve" smooth="yes"/>
      <point x="364" y="76"/>
      <point x="405" y="145"/>
      <point x="405" y="251" type="curve" smooth="yes"/>
      <point x="405" y="279" type="line" smooth="yes"/>
      <point x="405" y="385"/>
      <point x="364" y="454"/>
      <point x="274" y="454" type="curve" smooth="yes"/>
      <point x="184" y="454"/>
      <point x="143" y="385"/>
      <point x="143" y="279" type="curve" smooth="yes"/>
    </contour>
    <contour>
      <point x="637" y="462" type="curve" smooth="yes"/>
      <point x="551" y="462"/>
      <point x="509" y="403"/>
      <point x="506" y="303" type="curve"/>
      <point x="768" y="303" type="line"/>
      <point x="764" y="403"/>
      <point x="723" y="462"/>
    </contour>
  </outline>
</glyph>
<glyph name="Rcommaaccent" format="2">
  <advance width="598"/>
  <unicode hex="0156"/>
  <outline>
    <contour>
      <point x="171" y="304" type="line"/>
      <point x="171" y="0" type="line"/>
      <point x="67" y="0" type="line"/>
      <point x="67" y="780" type="line"/>
      <point x="298" y="780" type="line" smooth="yes"/>
      <point x="415" y="780"/>
      <point x="548" y="741"/>
      <point x="548" y="552" type="curve" smooth="yes"/>
      <point x="548" y="532" type="line" smooth="yes"/>
      <point x="548" y="407"/>
      <point x="490" y="348"/>
      <point x="418" y="322" type="curve"/>
      <point x="548" y="0" type="line"/>
      <point x="435" y="0" type="line"/>
      <point x="317" y="304" type="line"/>
    </contour>
    <contour>
      <point x="171" y="395" type="line"/>
      <point x="301" y="395" type="line" smooth="yes"/>
      <point x="361" y="395"/>
      <point x="442" y="417"/>
      <point x="442" y="535" type="curve" smooth="yes"/>
      <point x="442" y="548" type="line" smooth="yes"/>
      <point x="442" y="666"/>
      <point x="361" y="688"/>
      <point x="301" y="688" type="curve" smooth="yes"/>
      <point x="171" y="688" type="line"/>
    </contour>
    <contour>
      <point x="343" y="-51" type="line"/>
      <point x="343" y="-105" type="line" smooth="yes"/>
      <point x="343" y="-181"/>
      <point x="302" y="-219"/>
      <point x="223" y="-219" type="curve"/>
      <point x="223" y="-176" type="line"/>
      <point x="262" y="-176"/>
      <point x="289" y="-164"/>
      <point x="298" y="-129" type="curve"/>
      <point x="241" y="-129" type="line"/>
      <point x="241" y="-51" type="line"/>
    </contour>
  </outline>
</glyph>
<glyph name="Scircumflex" format="2">
  <advance width="611"/>
  <unicode hex="015C"/>
  <outline>
    <contour>
      <point x="289" y="354" type="curve" smooth="yes"/>
      <point x="119" y="377"/>
      <point x="49" y="448"/>
      <point x="49" y="564" type="curve" smooth="yes"/>
      <point x="49" y="575" type="line" smooth="yes"/>
      <point x="49" y="708"/>
      <point x="147" y="792"/>
      <point x="306" y="792" type="curve" smooth="yes"/>
      <point x="485" y="792"/>
      <point x="562" y="704"/>
      <point x="562" y="535" type="curve" smooth="yes"/>
      <point x="562" y="511" type="line"/>
      <point x="458" y="511" type="line"/>
      <point x="458" y="643"/>
      <point x="414" y="700"/>
      <point x="307" y="700" type="curve" smooth="yes"/>
      <point x="300" y="700" type="line" smooth="yes"/>
      <point x="215" y="700"/>
      <point x="156" y="654"/>
      <point x="156" y="583" type="curve" smooth="yes"/>
      <point x="156" y="575" type="line" smooth="yes"/>
      <point x="156" y="502"/>
      <point x="192" y="459"/>
      <point x="324" y="441" type="curve" smooth="yes"/>
      <point x="494" y="418"/>
      <point x="570" y="353"/>
      <point x="570" y="225" type="curve" smooth="yes"/>
      <point x="570" y="214" type="line" smooth="yes"/>
      <point x="570" y="72"/>
      <point x="471" y="-12"/>
      <point x="306" y="-12" type="curve" smooth="yes"/>
      <point x="133" y="-12"/>
      <point x="41" y="78"/>
      <point x="41" y="249" type="curve" smooth="yes"/>
      <point x="41" y="259" type="line"/>
      <point x="145" y="259" type="line"/>
      <point x="145" y="135"/>
      <point x="208" y="80"/>
      <point x="302" y="80" type="curve" smooth="yes"/>
      <point x="310" y="80" type="line" smooth="yes"/>
      <point x="404" y="80"/>
      <point x="463" y="130"/>
      <point x="463" y="209" type="curve" smooth="yes"/>
      <point x="463" y="217" type="line" smooth="yes"/>
      <point x="463" y="296"/>
      <point x="417" y="337"/>
    </contour>
    <contour>
      <point x="240" y="840" type="line"/>
      <point x="144" y="840" type="line"/>
      <point x="257" y="950" type="line"/>
      <point x="355" y="950" type="line"/>
      <point x="468" y="840" type="line"/>
      <point x="372" y="840" type="line"/>
      <point x="306" y="897" type="line"/>
    </contour>
  </outline>
</glyph>
<glyph name="scedilla" format="2">
  <advance width="524"/>
  <unicode hex="015F"/>
  <outline>
    <contour>
      <point x="168" y="-191" type="curve"/>
      <point x="186" y="-139" type="line"/>
      <point x="202" y="-148"/>
      <point x="230" y="-155"/>
      <point x="256" y="-155" type="curve" smooth="yes"/>
      <point x="293" y="-155"/>
      <point x="310" y="-147"/>
      <point x="310" y="-126" type="curve" smooth="yes"/>
      <point x="310" y="-106"/>
      <point x="289" y="-99"/>
      <point x="253" y="-99" type="curve" smooth="yes"/>
      <point x="237" y="-99"/>
      <point x="221" y="-102"/>
      <point x="221" y="-102" type="curve"/>
      <point x="204" y="-77" type="line"/>
      <point x="229" y="-10" type="line"/>
      <point x="101" y="1"/>
      <point x="50" y="78"/>
      <point x="50" y="160" type="curve" smooth="yes"/>
      <point x="50" y="164" type="line"/>
      <point x="149" y="164" type="line"/>
      <point x="149" y="114"/>
      <point x="175" y="68"/>
      <point x="262" y="68" type="curve" smooth="yes"/>
      <point x="336" y="68"/>
      <point x="373" y="101"/>
      <point x="373" y="150" type="curve" smooth="yes"/>
      <point x="373" y="208"/>
      <point x="339" y="225"/>
      <point x="250" y="232" type="curve" smooth="yes"/>
      <point x="105" y="245"/>
      <point x="56" y="290"/>
      <point x="56" y="376" type="curve" smooth="yes"/>
      <point x="56" y="383" type="line" smooth="yes"/>
      <point x="56" y="485"/>
      <point x="137" y="542"/>
      <point x="262" y="542" type="curve" smooth="yes"/>
      <point x="411" y="542"/>
      <point x="469" y="469"/>
      <point x="469" y="362" type="curve" smooth="yes"/>
      <point x="469" y="358" type="line"/>
      <point x="370" y="358" type="line"/>
      <point x="370" y="422"/>
      <point x="343" y="462"/>
      <point x="262" y="462" type="curve" smooth="yes"/>
      <point x="195" y="462"/>
      <point x="156" y="434"/>
      <point x="156" y="385" type="curve" smooth="yes"/>
      <point x="156" y="337"/>
      <point x="178" y="313"/>
      <point x="274" y="305" type="curve" smooth="yes"/>
      <point x="407" y="295"/>
      <point x="475" y="260"/>
      <point x="475" y="158" type="curve" smooth="yes"/>
      <point x="475" y="152" type="line" smooth="yes"/>
      <point x="475" y="60"/>
      <point x="409" y="-4"/>
      <point x="286" y="-11" type="curve"/>
      <point x="272" y="-50" type="line"/>
      <point x="325" y="-51"/>
      <point x="374" y="-74"/>
      <point x="374" y="-131" type="curve" smooth="yes"/>
      <point x="374" y="-187"/>
      <point x="333" y="-213"/>
      <point x="265" y="-213" type="curve" smooth="yes"/>
      <point x="224" y="-213"/>
      <point x="187" y="-203"/>
    </contour>
  </outline>
</glyph>
<glyph name="uogonek" format="2">
  <advance width="545"/>
  <unicode hex="0173"/>
  <outline>
    <contour>
      <point x="56" y="530" type="line"/>
      <point x="156" y="530" type="line"/>
      <point x="156" y="179" type="line" smooth="yes"/>
      <point x="156" y="113"/>
      <point x="191" y="76"/>
      <point x="255" y="76" type="curve" smooth="yes"/>
      <point x="327" y="76"/>
      <point x="365" y="118"/>
      <point x="384" y="147" type="curve"/>
      <point x="384" y="530" type="line"/>
      <point x="484" y="530" type="line"/>
      <point x="484" y="150" type="line"/>
      <point x="491" y="0" type="line"/>
      <point x="449" y="-18"/>
      <point x="416" y="-47"/>
      <point x="416" y="-91" type="curve" smooth="yes"/>
      <point x="416" y="-117"/>
      <point x="434" y="-136"/>
      <point x="467" y="-136" type="curve" smooth="yes"/>
      <point x="490" y="-136"/>
      <point x="510" y="-130"/>
      <point x="522" y="-123" type="curve"/>
      <point x="547" y="-191" type="line"/>
      <point x="526" y="-204"/>
      <point x="489" y="-213"/>
      <point x="454" y="-213" type="curve" smooth="yes"/>
      <point x="383" y="-213"/>
      <point x="335" y="-181"/>
      <point x="335" y="-111" type="curve" smooth="yes"/>
      <point x="335" y="-56"/>
      <point x="363" y="-15"/>
      <point x="402" y="14" type="curve"/>
      <point x="393" y="73" type="line"/>
      <point x="361" y="25"/>
      <point x="305" y="-12"/>
      <point x="218" y="-12" type="curve" smooth="yes"/>
      <point x="108" y="-12"/>
      <point x="56" y="65"/>
      <point x="56" y="163" type="curve" smooth="yes"/>
    </contour>
  </outline>
</glyph>
<glyph name="dotlessj" format="2">
  <advance width="234"/>
  <unicode hex="0237"/>
  <outline>
    <contour>
      <point x="66" y="-28" type="curve" smooth="yes"/>
      <point x="66" y="530" type="line"/>
      <point x="168" y="530" type="line"/>
      <point x="168" y="-39" type="line" smooth="yes"/>
      <point x="168" y="-166"/>
      <point x="97" y="-212"/>
      <point x="-3" y="-212" type="curve" smooth="yes"/>
      <point x="-47" y="-212"/>
      <point x="-73" y="-204"/>
      <point x="-81" y="-200" type="curve"/>
      <point x="-81" y="-115" type="line"/>
      <point x="-74" y="-118"/>
      <point x="-48" y="-123"/>
      <point x="-27" y="-123" type="curve" smooth="yes"/>
      <point x="33" y="-123"/>
      <point x="66" y="-105"/>
    </contour>
  </outline>
</glyph>
<glyph name="Pdotaccent" format="2">
  <advance width="586"/>
  <unicode hex="1E56"/>
  <outline>
    <contour>
      <point x="171" y="304" type="line"/>
      <point x="171" y="0" type="line"/>
      <point x="67" y="0" type="line"/>
      <point x="67" y="780" type="line"/>
      <point x="298" y="780" type="line" smooth="yes"/>
      <point x="415" y="780"/>
      <point x="548" y="741"/>
      <point x="548" y="552" type="curve" smooth="yes"/>
      <point x="548" y="532" type="line" smooth="yes"/>
      <point x="548" y="342"/>
      <point x="415" y="304"/>
      <point x="298" y="304" type="curve" smooth="yes"/>
    </contour>
    <contour>
      <point x="171" y="395" type="line"/>
      <point x="301" y="395" type="line" smooth="yes"/>
      <point x="361" y="395"/>
      <point x="442" y="417"/>
      <point x="442" y="535" type="curve" smooth="yes"/>
      <point x="442" y="548" type="line" smooth="yes"/>
      <point x="442" y="666"/>
      <point x="361" y="688"/>
      <point x="301" y="688" type="curve" smooth="yes"/>
      <point x="171" y="688" type="line"/>
    </contour>
    <contour>
      <point x="338" y="936" type="line"/>
      <point x="338" y="854" type="line"/>
      <point x="240" y="854" type="line"/>
      <point x="240" y="936" type="line"/>
    </contour>
  </outline>
</glyph>
<glyph name="quoteleft" format="2">
  <advance width="234"/>
  <unicode hex="2018"/>
  <outline>
    <contour>
      <point x="60" y="558" type="line"/>
      <point x="60" y="648" type="line" smooth="yes"/>
      <point x="60" y="748"/>
      <point x="104" y="799"/>
      <point x="192" y="799" type="curve"/>
      <point x="192" y="743" type="line"/>
      <point x="147" y="743"/>
      <point x="122" y="723"/>
      <point x="116" y="672" type="curve"/>
      <point x="174" y="672" type="line"/>
      <point x="174" y="558" type="line"/>
    </contour>
  </outline>
</glyph>
<glyph name="quoteright" format="2">
  <advance width="234"/>
  <unicode hex="2019"/>
  <outline>
    <contour>
      <point x="174" y="780" type="line"/>
      <point x="174" y="690" type="line" smooth="yes"/>
      <point x="174" y="590"/>
      <point x="130" y="539"/>
      <point x="42" y="539" type="curve"/>
      <point x="42" y="595" type="line"/>
      <point x="87" y="595"/>
      <point x="112" y="615"/>
      <point x="118" y="666" type="curve"/>
      <point x="60" y="666" type="line"/>
      <point x="60" y="780" type="line"/>
    </contour>
  </outline>
</glyph>
<glyph name="reversequoteleft" format="2">
  <advance width="234"/>
  <unicode hex="201B"/>
  <outline>
    <contour>
      <point x="60" y="690" type="curve" smooth="yes"/>
      <point x="60" y="780" type="line"/>
      <point x="174" y="780" type="line"/>
      <point x="174" y="666" type="line"/>
      <point x="116" y="666" type="line"/>
      <point x="122" y="615"/>
      <point x="147" y="595"/>
      <point x="192" y="595" type="curve"/>
      <point x="192" y="539" type="line"/>
      <point x="104" y="539"/>
      <point x="60" y="590"/>
    </contour>
  </outline>
</glyph>
<glyph name="quotedblleft" format="2">
  <advance width="404"/>
  <unicode hex="201C"/>
  <outline>
    <contour>
      <point x="60" y="558" type="line"/>
      <point x="60" y="648" type="line" smooth="yes"/>
      <point x="60" y="748"/>
      <point x="104" y="799"/>
      <point x="192" y="799" type="curve"/>
      <point x="192" y="743" type="line"/>
      <point x="147" y="743"/>
      <point x="122" y="723"/>
      <point x="116" y="672" type="curve"/>
      <point x="174" y="672" type="line"/>
      <point x="174" y="558" type="line"/>
    </contour>
    <contour>
      <point x="230" y="558" type="line"/>
      <point x="230" y="648" type="line" smooth="yes"/>
      <point x="230" y="748"/>
      <point x="274" y="799"/>
      <point x="362" y="799" type="curve"/>
      <point x="362" y="743" type="line"/>
      <point x="317" y="743"/>
      <point x="292" y="723"/>
      <point x="286" y="672" type="curve"/>
      <point x="344" y="672" type="line"/>
      <point x="344" y="558" type="line"/>
    </contour>
  </outline>
</glyph>
<glyph name="quotedblright" format="2">
  <advance width="404"/>
  <unicode hex="201D"/>
  <outline>
    <contour>
      <point x="174" y="780" type="line"/>
      <point x="174" y="690" type="line" smooth="yes"/>
      <point x="174" y="590"/>
      <point x="130" y="539"/>
      <point x="42" y="539" type="curve"/>
      <point x="42" y="595" type="line"/>
      <point x="87" y="595"/>
      <point x="112" y="615"/>
      <point x="118" y="666" type="curve"/>
      <point x="60" y="666" type="line"/>
      <point x="60" y="780" type="line"/>
    </contour>
    <contour>
      <point x="344" y="780" type="line"/>
      <point x="344" y="690" type="line" smooth="yes"/>
      <point x="344" y="590"/>
      <point x="300" y="539"/>
      <point x="212" y="539" type="curve"/>
      <point x="212" y="595" type="line"/>
      <point x="257" y="595"/>
      <point x="282" y="615"/>
      <point x="288" y="666" type="curve"/>
      <point x="230" y="666" type="line"/>
      <point x="230" y="780" type="line"/>
    </contour>
  </outline>
</glyph>
<glyph name="reversequotedblleft" format="2">
  <advance width="404"/>
  <unicode hex="201F"/>
  <outline>
    <contour>
      <point x="60" y="690" type="curve" smooth="yes"/>
      <point x="60" y="780" type="line"/>
      <point x="174" y="780" type="line"/>
      <point x="174" y="666" type="line"/>
      <point x="116" y="666" type="line"/>
      <point x="122" y="615"/>
      <point x="147" y="595"/>
      <point x="192" y="595" type="curve"/>
      <point x="192" y="539" type="line"/>
      <point x="104" y="539"/>
      <point x="60" y="590"/>
    </contour>
    <contour>
      <point x="230" y="690" type="curve" smooth="yes"/>
      <point x="230" y="780" type="line"/>
      <point x="344" y="780" type="line"/>
      <point x="344" y="666" type="line"/>
      <point x="286" y="666" type="line"/>
      <point x="292" y="615"/>
      <point x="317" y="595"/>
      <point x="362" y="595" type="curve"/>
      <point x="362" y="539" type="line"/>
      <point x="274" y="539"/>
      <point x="230" y="590"/>
    </contour>
  </outline>
</glyph>
<glyph name="uni2082" format="2">
  <advance width="300"/>
  <unicode hex="2082"/>
  <outline>
    <contour>
      <point x="279" y="73" type="line"/>
      <point x="279" y="0" type="line"/>
      <point x="21" y="0" type="line"/>
      <point x="21" y="53" type="line"/>
      <point x="170" y="217" type="line" smooth="yes"/>
      <point x="186" y="234"/>
      <point x="195" y="246"/>
      <point x="195" y="268" type="curve" smooth="yes"/>
      <point x="195" y="273" type="line" smooth="yes"/>
      <point x="195" y="307"/>
      <point x="177" y="323"/>
      <point x="152" y="323" type="curve" smooth="yes"/>
      <point x="147" y="323" type="line" smooth="yes"/>
      <point x="122" y="323"/>
      <point x="105" y="307"/>
      <point x="105" y="260" type="curve"/>
      <point x="21" y="260" type="line"/>
      <point x="21" y="270" type="line" smooth="yes"/>
      <point x="21" y="354"/>
      <point x="62" y="396"/>
      <point x="150" y="396" type="curve" smooth="yes"/>
      <point x="246" y="396"/>
      <point x="279" y="338"/>
      <point x="279" y="288" type="curve" smooth="yes"/>
      <point x="279" y="278" type="line" smooth="yes"/>
      <point x="279" y="232"/>
      <point x="263" y="209"/>
      <point x="235" y="178" type="curve" smooth="yes"/>
      <point x="139" y="73" type="line"/>
    </contour>
  </outline>
</glyph>
<glyph name="uni2086" format="2">
  <advance width="300"/>
  <unicode hex="2086"/>
  <outline>
    <contour>
      <point x="261" y="396" type="curve"/>
      <point x="261" y="322" type="line"/>
      <point x="204" y="322"/>
      <point x="165" y="309"/>
      <point x="138" y="277" type="curve" smooth="yes"/>
      <point x="127" y="264"/>
      <point x="119" y="248"/>
      <point x="114" y="229" type="curve"/>
      <point x="129" y="239"/>
      <point x="149" y="246"/>
      <point x="172" y="246" type="curve" smooth="yes"/>
      <point x="238" y="246"/>
      <point x="281" y="200"/>
      <point x="281" y="123" type="curve" smooth="yes"/>
      <point x="281" y="118" type="line" smooth="yes"/>
      <point x="281" y="41"/>
      <point x="237" y="-7"/>
      <point x="150" y="-7" type="curve" smooth="yes"/>
      <point x="65" y="-7"/>
      <point x="19" y="51"/>
      <point x="19" y="136" type="curve" smooth="yes"/>
      <point x="19" y="144" type="line" smooth="yes"/>
      <point x="19" y="206"/>
      <point x="32" y="268"/>
      <point x="74" y="323" type="curve" smooth="yes"/>
      <point x="117" y="381"/>
      <point x="181" y="396"/>
    </contour>
    <contour>
      <point x="151" y="173" type="line" smooth="yes"/>
      <point x="133" y="173"/>
      <point x="114" y="164"/>
      <point x="103" y="145" type="curve"/>
      <point x="103" y="130" type="line" smooth="yes"/>
      <point x="103" y="88"/>
      <point x="123" y="66"/>
      <point x="149" y="66" type="curve" smooth="yes"/>
      <point x="152" y="66" type="line" smooth="yes"/>
      <point x="177" y="66"/>
      <point x="198" y="84"/>
      <point x="198" y="115" type="curve" smooth="yes"/>
      <point x="198" y="125" type="line" smooth="yes"/>
      <point x="198" y="159"/>
      <point x="179" y="173"/>
      <point x="154" y="173" type="curve" smooth="yes"/>
    </contour>
  </outline>
</glyph>
<glyph name="commaaccent" format="2">
  <advance width="602"/>
  <unicode hex="E414"/>
  <unicode hex="F6C3"/>
  <outline>
    <contour>
      <point x="301" y="-51" type="line"/>
      <point x="301" y="-105" type="line" smooth="yes"/>
      <point x="301" y="-181"/>
      <point x="260" y="-219"/>
      <point x="181" y="-219" type="curve"/>
      <point x="181" y="-176" type="line"/>
      <point x="220" y="-176"/>
      <point x="247" y="-164"/>
      <point x="256" y="-129" type="curve"/>
      <point x="199" y="-129" type="line"/>
      <point x="199" y="-51" type="line"/>
    </contour>
  </outline>
</glyph>
<glyph name="two.inf" format="2">
  <advance width="300"/>
  <unicode hex="E573"/>
  <outline>
    <contour>
      <point x="279" y="-127" type="line"/>
      <point x="279" y="-200" type="line"/>
      <point x="21" y="-200" type="line"/>
      <point x="21" y="-147" type="line"/>
      <point x="170" y="17" type="line" smooth="yes"/>
      <point x="186" y="34"/>
      <point x="195" y="46"/>
      <point x="195" y="68" type="curve" smooth="yes"/>
      <point x="195" y="73" type="line" smooth="yes"/>
      <point x="195" y="107"/>
      <point x="177" y="123"/>
      <point x="152" y="123" type="curve" smooth="yes"/>
      <point x="147" y="123" type="line" smooth="yes"/>
      <point x="122" y="123"/>
      <point x="105" y="107"/>
      <point x="105" y="60" type="curve"/>
      <point x="21" y="60" type="line"/>
      <point x="21" y="70" type="line" smooth="yes"/>
      <point x="21" y="154"/>
      <point x="62" y="196"/>
      <point x="150" y="196" type="curve" smooth="yes"/>
      <point x="246" y="196"/>
      <point x="279" y="138"/>
      <point x="279" y="88" type="curve" smooth="yes"/>
      <point x="279" y="78" type="line" smooth="yes"/>
      <point x="279" y="32"/>
      <point x="263" y="9"/>
      <point x="235" y="-22" type="curve" smooth="yes"/>
      <point x="139" y="-127" type="line"/>
    </contour>
  </outline>
</glyph>
<glyph name="interrobangdown.cap" format="2">
  <advance width="470"/>
  <unicode hex="E99B"/>
  <outline>
    <contour>
      <point x="203" y="577" type="curve"/>
      <point x="257" y="577" type="line"/>
      <point x="280" y="89" type="line"/>
      <point x="327" y="112"/>
      <point x="343" y="176"/>
      <point x="343" y="271" type="curve"/>
      <point x="445" y="271" type="line"/>
      <point x="445" y="258" type="line" smooth="yes"/>
      <point x="445" y="98"/>
      <point x="397" y="-12"/>
      <point x="231" y="-12" type="curve" smooth="yes"/>
      <point x="79" y="-12"/>
      <point x="25" y="78"/>
      <point x="25" y="194" type="curve" smooth="yes"/>
      <point x="25" y="394"/>
      <point x="192" y="381"/>
    </contour>
    <contour>
      <point x="180" y="666" type="line"/>
      <point x="180" y="780" type="line"/>
      <point x="294" y="780" type="line"/>
      <point x="294" y="666" type="line"/>
    </contour>
    <contour>
      <point x="128" y="200" type="curve" smooth="yes"/>
      <point x="128" y="145"/>
      <point x="142" y="103"/>
      <point x="184" y="86" type="curve"/>
      <point x="197" y="376" type="line"/>
      <point x="165" y="316"/>
      <point x="128" y="266"/>
    </contour>
  </outline>
</glyph>
<glyph name="comma.T" format="2">
  <advance width="300"/>
  <unicode hex="F183"/>
  <outline>
    <contour>
      <point x="207" y="114" type="line"/>
      <point x="207" y="24" type="line" smooth="yes"/>
      <point x="207" y="-76"/>
      <point x="163" y="-127"/>
      <point x="75" y="-127" type="curve"/>
      <point x="75" y="-71" type="line"/>
      <point x="120" y="-71"/>
      <point x="145" y="-51"/>
      <point x="151" y="0" type="curve"/>
      <point x="93" y="0" type="line"/>
      <point x="93" y="114" type="line"/>
    </contour>
  </outline>
</glyph>
